<svg width="180" height="180" viewBox="0 0 180 180" fill="none" xmlns="http://www.w3.org/2000/svg">
<rect x="1" y="1" width="178" height="178" rx="29" fill="#141414" stroke="#E8E3D5" stroke-width="2"/>
<path d="M106.625 100.655C103.736 100.493 100.89 99.3801 98.9586 97.1916C96.2725 94.2692 95.3217 89.5202 96.9506 85.8339C98.9818 81.0683 103.912 79.0425 108.895 79.3912C112.608 79.3912 121.036 79.3912 125.354 79.3912C126.767 79.3713 128.004 79.4576 129.264 79.2982C132.166 78.9927 135.208 77.0831 136.76 74.5392C139.712 70.0692 138.595 63.5335 134.127 60.4782C132.349 59.1831 130.211 58.5953 128.02 58.4292C126.927 58.3196 125.826 58.1967 124.789 57.8812C121.508 56.9016 118.901 54.371 117.821 51.143C117.229 49.4626 117.253 47.6394 116.95 45.8992C116.252 41.7081 113.011 38.4934 108.799 37.5403C107.838 37.3145 106.927 37.1484 106.036 37.1418C95.827 37.1086 77.8698 37.0122 74.0268 37.0023C68.9239 36.896 64.0503 40.5092 63.1561 45.6169C62.1156 50.5685 65.1108 55.8621 69.8414 57.5259C71.5136 58.1502 72.8766 58.2864 74.6983 58.2665C80.2766 58.3196 81.4358 58.4525 84.4909 58.4823C88.4203 58.3561 92.6921 60.269 94.5903 63.776C98.7358 71.4308 92.8384 79.5838 84.3912 79.2849C73.9426 79.3082 67.9166 79.2716 55.3771 79.2816C53.2195 79.2982 51.5573 79.1587 49.5129 79.7067C43.632 81.0882 40.0583 87.8763 42.2491 93.5286C43.5655 97.2547 47.0528 99.9447 50.9889 100.426C55.9023 100.745 66.7055 100.463 79.1121 100.552C81.9677 100.552 84.0587 100.552 84.8898 100.552C85.691 100.546 86.4423 100.639 87.3066 100.811C92.5791 101.698 96.1794 106.832 95.8769 112.036C95.8769 115.547 95.8769 126.297 95.8769 131.653C95.8669 133.583 96.2126 135.569 97.2099 137.445C100.066 143.008 107.765 144.781 112.788 140.975C116.584 138.189 117.406 134.134 117.189 129.74C117.183 125.274 117.196 117.649 117.189 112.704C117.618 106.138 113.406 100.928 106.694 100.669L106.628 100.662L106.625 100.655Z" fill="#BBEBE1"/>
</svg>
